<svg xmlns="http://www.w3.org/2000/svg" xmlns:xlink="http://www.w3.org/1999/xlink" width="500" zoomAndPan="magnify" viewBox="0 0 375 374.999991" height="500" preserveAspectRatio="xMidYMid meet" version="1.0"><defs><g/><clipPath id="93ca37ef0b"><path d="M 118 5 L 268 5 L 268 362 L 118 362 Z M 118 5 " clip-rule="nonzero"/></clipPath><clipPath id="dcaf6fcecf"><path d="M 57.839844 46.125 L 207.722656 0.234375 L 308.289062 328.683594 L 158.40625 374.574219 Z M 57.839844 46.125 " clip-rule="nonzero"/></clipPath><clipPath id="bcef2c624d"><path d="M 57.757812 45.859375 L 207.640625 -0.0351562 L 308.425781 329.132812 L 158.542969 375.023438 Z M 57.757812 45.859375 " clip-rule="nonzero"/></clipPath></defs><g clip-path="url(#93ca37ef0b)"><g clip-path="url(#dcaf6fcecf)"><g clip-path="url(#bcef2c624d)"><path fill="#bfbfbf" d="M 212.179688 245 L 200.421875 244.460938 C 200 244.433594 199.863281 244.621094 200.027344 245.03125 C 204.519531 256.175781 206.6875 267.753906 206.574219 279.785156 L 206.578125 279.800781 C 206.582031 279.914062 206.699219 280.015625 206.851562 280.003906 C 206.917969 280 207.003906 279.945312 207.039062 279.878906 C 211.027344 268.675781 212.820312 257.152344 212.414062 245.226562 C 212.40625 245.097656 212.304688 244.992188 212.175781 245 Z M 224.726562 219.394531 C 230.910156 220.390625 236.84375 222.132812 242.546875 224.625 C 242.574219 224.644531 242.617188 224.640625 242.660156 224.636719 C 242.769531 224.628906 242.824219 224.511719 242.800781 224.425781 C 242.792969 224.382812 242.789062 224.339844 242.746094 224.324219 C 237.832031 219.621094 231.722656 216.832031 224.867188 218.144531 C 224.476562 218.203125 224.199219 218.578125 224.230469 218.949219 C 224.234375 219.042969 224.269531 219.148438 224.316406 219.234375 C 224.34375 219.300781 224.488281 219.375 224.730469 219.398438 Z M 185.363281 219.863281 C 185.167969 228.234375 180.726562 235.472656 179.964844 243.777344 C 179.949219 243.847656 180.003906 243.90625 180.046875 243.921875 C 180.132812 243.914062 180.199219 243.957031 180.269531 243.972656 C 180.425781 243.980469 180.507812 243.929688 180.539062 243.796875 C 181.21875 239.671875 182.929688 236.042969 185.65625 232.945312 C 186.023438 232.539062 186.179688 232.019531 186.132812 231.472656 C 185.691406 227.660156 185.527344 223.824219 185.675781 219.972656 C 185.671875 219.878906 185.664062 219.839844 185.644531 219.820312 C 185.574219 219.824219 185.507812 219.808594 185.464844 219.789062 C 185.394531 219.773438 185.371094 219.796875 185.355469 219.859375 Z M 160.753906 219.699219 C 153.148438 218.117188 146.046875 222.808594 140.605469 227.851562 C 140.605469 227.851562 140.585938 227.917969 140.589844 227.9375 C 140.59375 227.984375 140.640625 228.027344 140.6875 228.019531 L 140.707031 228.015625 C 147.230469 225.09375 153.855469 222.671875 160.589844 220.683594 C 160.742188 220.648438 160.84375 220.589844 160.90625 220.5 C 161.050781 220.375 161.105469 220.238281 161.074219 220.132812 C 160.988281 219.875 160.839844 219.683594 160.753906 219.695312 Z M 225.277344 209.136719 L 248.578125 218.425781 L 248.648438 218.421875 C 248.734375 218.414062 248.792969 218.34375 248.785156 218.253906 C 248.78125 218.210938 248.761719 218.167969 248.707031 218.148438 L 225.691406 205.605469 C 225.433594 205.449219 225.308594 205.527344 225.289062 205.820312 L 225.074219 208.820312 C 225.039062 208.976562 225.121094 209.101562 225.273438 209.132812 Z M 183.683594 204.023438 C 175.273438 221.378906 165.941406 240.117188 174.191406 259.503906 L 174.214844 259.527344 L 174.441406 259.640625 C 174.554688 259.699219 174.597656 259.671875 174.566406 259.519531 C 171.683594 247.292969 172.464844 235.316406 176.988281 223.675781 C 179.433594 217.332031 182.355469 210.722656 184.007812 204.15625 C 184.019531 204.113281 184.042969 204.089844 184.042969 204.089844 C 184.035156 203.976562 183.945312 203.917969 183.832031 203.929688 C 183.769531 203.933594 183.726562 203.976562 183.6875 204.027344 Z M 159.664062 207.28125 L 159.5625 204.148438 L 159.554688 204.042969 C 159.496094 203.847656 159.289062 203.753906 159.078125 203.8125 C 159.078125 203.8125 159.035156 203.839844 158.988281 203.839844 L 135.230469 219.691406 C 135.105469 219.769531 135.09375 219.878906 135.164062 219.988281 C 135.195312 220.09375 135.265625 220.109375 135.328125 220.0625 C 143.292969 215.898438 151.25 211.859375 159.238281 207.976562 C 159.515625 207.84375 159.691406 207.566406 159.664062 207.257812 L 159.667969 207.273438 Z M 227.371094 144.835938 C 227.195312 149.402344 226.992188 153.421875 228.761719 157.6875 C 230.5 161.898438 232.636719 165.902344 235.226562 169.667969 C 244.710938 183.675781 254.964844 197.4375 258.242188 214.472656 C 260.097656 224.109375 260.367188 233.859375 259.078125 243.707031 C 259.058594 243.777344 259.085938 243.792969 259.148438 243.808594 L 259.191406 243.804688 C 259.285156 243.796875 259.320312 243.730469 259.375 243.613281 C 259.71875 242.410156 259.949219 241.464844 260.03125 240.84375 C 262.71875 222.722656 260.320312 205.371094 252.835938 188.742188 C 245.882812 173.226562 236.550781 158.921875 227.5625 144.761719 C 227.433594 144.550781 227.371094 144.578125 227.367188 144.824219 Z M 154.914062 146.277344 C 147.335938 158.414062 139.597656 170.1875 133.207031 183.3125 C 123.03125 204.195312 122.222656 226.621094 128.46875 249.09375 C 128.472656 249.160156 128.496094 249.183594 128.523438 249.226562 C 128.59375 249.261719 128.664062 249.300781 128.726562 249.296875 C 128.816406 249.269531 128.855469 249.21875 128.847656 249.132812 C 127.84375 243.402344 127.21875 237.660156 126.914062 231.851562 C 126.042969 213.980469 131.664062 198.25 140.839844 183.257812 C 147.121094 173.039062 152.378906 166.046875 155.019531 156.257812 C 155.953125 152.804688 155.753906 149.34375 155.511719 145.832031 C 155.503906 145.703125 155.386719 145.617188 155.25 145.632812 C 155.164062 145.640625 155.078125 145.691406 155.046875 145.800781 C 155.035156 145.914062 154.992188 146.003906 154.980469 146.097656 C 154.960938 146.167969 154.945312 146.230469 154.90625 146.28125 Z M 208.832031 83.816406 C 205.925781 92.519531 205.535156 101.785156 206.171875 110.882812 C 207.105469 124.664062 208.238281 138.449219 207.960938 152.265625 C 207.550781 172.808594 203.917969 192.882812 209.429688 213.183594 C 209.433594 213.25 209.480469 213.292969 209.480469 213.292969 C 209.550781 213.308594 209.617188 213.300781 209.679688 213.273438 C 209.792969 213.265625 209.828125 213.195312 209.820312 213.085938 C 208.664062 203.101562 208.25 194.539062 208.613281 187.351562 C 209.683594 165.667969 210.722656 150.359375 209.503906 131.429688 C 208.425781 115.449219 206.796875 99.34375 209.355469 83.398438 C 209.371094 83.332031 209.34375 83.289062 209.257812 83.292969 L 209.058594 83.3125 C 208.96875 83.320312 208.929688 83.367188 208.914062 83.4375 C 208.902344 83.566406 208.867188 83.683594 208.832031 83.820312 Z M 196.03125 59.539062 L 196.824219 59.496094 C 196.933594 59.488281 196.972656 59.390625 196.964844 59.308594 L 196.976562 59.21875 L 196.972656 59.199219 C 195.964844 43.660156 194.902344 31.054688 194.597656 31.082031 L 194.53125 31.085938 C 194.296875 31.175781 194.84375 43.792969 195.855469 59.265625 L 195.84375 59.398438 C 195.855469 59.484375 195.945312 59.542969 196.03125 59.539062 Z M 182.730469 25.183594 C 175.828125 37.996094 171.070312 51.578125 168.492188 65.933594 C 168.421875 66.207031 168.542969 66.328125 168.851562 66.257812 C 177.789062 63.976562 184.089844 63.769531 192.089844 62.9375 C 192.328125 62.890625 192.472656 62.765625 192.515625 62.5 C 193.851562 45.972656 192.425781 29.667969 190.214844 13.277344 C 190.210938 13.257812 190.195312 13.210938 190.167969 13.191406 C 190.109375 13.042969 189.929688 12.96875 189.777344 13.042969 C 189.734375 13.070312 189.710938 13.09375 189.691406 13.097656 C 170.925781 32.695312 163.558594 59.222656 162.15625 85.707031 C 159.59375 134.980469 163.566406 184.394531 167.511719 233.464844 L 167.519531 233.484375 C 167.519531 233.554688 167.566406 233.613281 167.632812 233.609375 C 167.699219 233.605469 167.742188 233.558594 167.753906 233.488281 C 170.800781 219.140625 178 205.6875 184.835938 192.8125 C 185.027344 192.46875 185.382812 192.238281 185.78125 192.203125 C 186.351562 192.15625 186.863281 192.515625 187.023438 193.050781 C 187.214844 193.761719 187.351562 194.609375 187.382812 195.558594 C 188.167969 206.703125 188.925781 217.847656 189.667969 229.007812 C 189.6875 229.273438 189.835938 229.390625 190.09375 229.371094 C 197.992188 228.679688 206.445312 228.273438 214.242188 230.125 C 214.359375 230.160156 214.464844 230.128906 214.523438 230.058594 C 214.667969 229.914062 214.636719 229.828125 214.453125 229.773438 C 208.980469 228.171875 203.394531 227.476562 197.6875 227.726562 C 197.445312 227.742188 197.253906 227.558594 197.234375 227.34375 L 197.230469 227.324219 C 196.296875 211.355469 195.804688 195.351562 195.742188 179.3125 C 195.671875 164.246094 196.484375 149.105469 197.0625 134.03125 C 197.226562 130.128906 196.933594 124.71875 196.433594 119.652344 C 195.179688 106.539062 194.757812 93.09375 199.320312 80.585938 C 199.453125 80.265625 199.742188 80.0625 200.074219 80.054688 C 205.550781 80.003906 210.976562 80.640625 216.367188 81.992188 C 216.429688 82.007812 216.496094 81.953125 216.53125 81.847656 C 216.582031 81.726562 216.535156 81.625 216.398438 81.589844 C 201.0625 76 181.878906 77.511719 166.492188 81.25 C 165.878906 81.386719 165.371094 81.628906 164.976562 81.925781 C 164.933594 81.96875 164.875 81.996094 164.828125 82 C 164.65625 82.015625 164.511719 81.898438 164.5 81.71875 C 164.5 81.707031 164.503906 81.683594 164.511719 81.652344 C 164.886719 78.375 165.238281 75.117188 165.617188 71.90625 C 165.765625 70.230469 166.402344 70.378906 167.761719 70.070312 C 183.734375 66.460938 199.878906 66.085938 216.199219 68.941406 L 216.21875 68.933594 C 216.28125 68.929688 216.347656 68.863281 216.339844 68.800781 C 216.335938 68.753906 216.3125 68.710938 216.261719 68.699219 C 201.101562 62.78125 181.996094 64.21875 166.601562 68.113281 C 166.34375 68.179688 166.246094 68.078125 166.273438 67.832031 C 168.488281 53.902344 173.941406 36.308594 182.53125 25.035156 C 182.554688 25.011719 182.597656 24.988281 182.597656 24.988281 C 182.683594 24.976562 182.734375 25.042969 182.742188 25.105469 C 182.742188 25.105469 182.746094 25.148438 182.722656 25.175781 Z M 161.375 227.867188 C 153.390625 230.492188 144.445312 234.5 139.179688 241.277344 C 134.0625 247.835938 131.8125 257.816406 131.246094 266.261719 C 131.210938 266.617188 131.121094 266.621094 130.964844 266.332031 C 117.953125 242.492188 115.347656 217.777344 123.148438 192.207031 C 125.863281 183.296875 130.238281 174.699219 135.480469 165.871094 C 141.714844 155.414062 148.25 145.128906 155.132812 135.058594 C 155.253906 134.871094 155.320312 134.625 155.320312 134.382812 C 154.96875 123.097656 154.980469 111.113281 155.285156 98.429688 C 156.097656 64.875 161.464844 28.0625 189.546875 5.601562 C 189.769531 5.429688 189.949219 5.433594 190.15625 5.550781 C 212.078125 20.054688 222.535156 49.382812 225.222656 74.335938 C 227.34375 93.941406 227.585938 113.277344 227.414062 132.714844 C 227.414062 132.960938 227.476562 133.179688 227.621094 133.363281 C 238.21875 148.269531 248.96875 163.699219 257.355469 179.960938 C 270.839844 206.097656 270.308594 234.585938 259.191406 261.445312 C 259.097656 261.652344 259.03125 261.65625 258.988281 261.414062 C 256.570312 249.703125 251.8125 237.320312 240.636719 231.1875 C 235.683594 228.433594 230.375 226.242188 224.714844 224.5625 C 224.648438 224.546875 224.601562 224.53125 224.539062 224.535156 C 224.273438 224.558594 224.070312 224.773438 224.042969 225.035156 C 223.851562 228.054688 223.59375 231.152344 223.234375 234.253906 C 223.207031 234.71875 223.347656 235.105469 223.707031 235.429688 C 229.523438 240.609375 224.792969 248.910156 217.433594 245.957031 C 217.382812 245.9375 217.363281 245.9375 217.316406 245.945312 C 217.164062 245.957031 217.0625 246.078125 217.070312 246.207031 C 217.074219 246.253906 217.097656 246.292969 217.105469 246.335938 C 225.507812 259.789062 228.601562 274.078125 234.566406 287.46875 C 234.667969 287.675781 234.6875 287.875 234.621094 288.105469 C 232.003906 297.6875 228.199219 306.777344 223.199219 315.347656 C 221.015625 319.128906 220.71875 318.996094 222.328125 314.929688 C 226.152344 305.3125 226.375 293.488281 220.8125 284.445312 C 220.792969 284.417969 220.785156 284.398438 220.785156 284.382812 C 220.777344 284.292969 220.859375 284.203125 220.96875 284.191406 C 220.96875 284.191406 221.035156 284.207031 221.085938 284.226562 C 224.300781 287.34375 226.65625 290.992188 228.128906 295.226562 C 228.15625 295.316406 228.253906 295.371094 228.34375 295.363281 C 228.433594 295.355469 228.492188 295.308594 228.507812 295.238281 C 229.699219 291.933594 230.167969 289.023438 228.949219 285.5 C 225.140625 274.433594 221.851562 263.386719 216.578125 253.058594 C 216.527344 252.972656 216.460938 252.9375 216.367188 252.945312 C 216.238281 252.957031 216.15625 253.046875 216.164062 253.15625 C 215.992188 267.957031 212.859375 282.074219 203.820312 294.085938 C 203.757812 294.160156 203.667969 294.207031 203.585938 294.210938 C 203.429688 294.226562 203.265625 294.085938 203.253906 293.929688 L 203.253906 293.863281 C 204.019531 277.445312 201.9375 260.402344 195.570312 245.078125 C 195.460938 244.757812 195.132812 244.5625 194.757812 244.59375 C 192.695312 244.742188 189.785156 244.339844 188.582031 246.585938 C 183.085938 256.648438 182.925781 270.273438 183.914062 281.507812 C 183.933594 281.707031 183.789062 281.851562 183.613281 281.867188 C 183.546875 281.871094 183.453125 281.859375 183.386719 281.820312 C 176.332031 276.671875 172.320312 270.863281 169.113281 262.75 C 169.085938 262.664062 168.996094 262.628906 168.902344 262.632812 C 168.8125 262.640625 168.734375 262.710938 168.71875 262.828125 C 167.632812 271.648438 165.714844 280.289062 162.890625 288.71875 C 162.890625 288.71875 162.871094 288.789062 162.875 288.808594 C 162.882812 288.894531 162.957031 288.980469 163.066406 288.96875 C 163.109375 288.964844 163.152344 288.945312 163.152344 288.945312 L 165.355469 286.933594 C 165.703125 286.59375 165.886719 286.6875 165.882812 287.195312 C 165.761719 290.28125 165.238281 293.589844 165.535156 296.394531 C 165.875 299.792969 166.703125 303.105469 167.980469 306.296875 C 168.007812 306.359375 168.058594 306.378906 168.117188 306.371094 C 168.1875 306.367188 168.25 306.316406 168.246094 306.25 C 168.714844 296.625 172.421875 286.105469 175.53125 277.453125 C 176.144531 275.769531 176.394531 275.816406 176.296875 277.609375 C 175.859375 284.367188 176.015625 291.117188 176.722656 297.863281 C 176.730469 297.972656 176.851562 298.050781 176.984375 298.042969 C 177.042969 298.035156 177.132812 298.007812 177.148438 297.914062 C 178.332031 295.453125 179.808594 293.167969 181.574219 291.054688 C 181.59375 291.003906 181.640625 291.027344 181.640625 291.027344 L 184.855469 311.867188 C 184.871094 312.089844 184.941406 312.105469 185.054688 311.894531 C 189.726562 301.785156 193.4375 310.058594 195.367188 315.554688 C 198.511719 324.539062 200.660156 333.703125 201.847656 343.066406 C 201.855469 343.175781 201.953125 343.257812 202.085938 343.246094 C 202.175781 343.238281 202.253906 343.164062 202.242188 343.058594 C 202.976562 337.160156 205.167969 319.214844 209.550781 315.472656 C 209.714844 315.328125 209.808594 315.144531 209.835938 314.945312 L 214.683594 287.691406 C 214.71875 287.578125 214.800781 287.480469 214.914062 287.472656 C 215.023438 287.464844 215.09375 287.523438 215.144531 287.585938 C 220.414062 295.574219 221.359375 304.070312 217.9375 313.011719 C 217.921875 313.058594 217.878906 313.105469 217.816406 313.113281 C 217.75 313.117188 217.679688 313.078125 217.671875 312.996094 L 217.691406 312.972656 C 218.1875 308.757812 217.609375 304.730469 215.921875 300.878906 C 215.785156 300.488281 215.628906 300.503906 215.507812 300.890625 C 214.003906 305.429688 214.058594 311.175781 213.675781 315.933594 C 213.152344 322.25 212.164062 327.128906 210.300781 332.671875 C 210.28125 332.71875 210.261719 332.742188 210.261719 332.742188 C 210.15625 332.792969 210.0625 332.78125 210.019531 332.71875 L 210.011719 332.609375 C 210.351562 329.753906 210.273438 326.90625 209.722656 324.058594 C 209.71875 323.996094 209.699219 323.976562 209.671875 323.933594 C 209.570312 323.808594 209.394531 323.800781 209.273438 323.917969 C 209.230469 323.945312 209.207031 323.96875 209.191406 324.015625 C 208.640625 325.890625 208.175781 327.8125 207.816406 329.832031 C 205.945312 340.390625 204.09375 350.972656 202.265625 361.578125 C 202.269531 361.621094 202.207031 361.667969 202.167969 361.675781 C 202.125 361.679688 202.050781 361.636719 202.046875 361.601562 C 199.613281 346.484375 196.917969 331.964844 191.597656 317.527344 C 191.054688 316.046875 190.4375 314.679688 189.742188 313.503906 C 189.613281 313.269531 189.382812 313.136719 189.117188 313.15625 C 188.832031 313.179688 188.605469 313.378906 188.539062 313.625 C 186.167969 320.273438 186.765625 327.5625 188.375 333.96875 C 188.738281 335.417969 188.570312 335.476562 187.863281 334.1875 C 184.300781 327.675781 180.53125 320.007812 179.460938 312.625 C 179.035156 309.585938 178.847656 306.511719 178.882812 303.410156 L 178.90625 303.386719 C 178.890625 303.214844 178.722656 303.074219 178.550781 303.085938 C 178.417969 303.097656 178.3125 303.171875 178.277344 303.308594 L 175.976562 310.59375 C 175.890625 310.863281 175.820312 310.847656 175.757812 310.566406 C 175.167969 307.960938 174.464844 305.390625 173.660156 302.828125 C 172.945312 300.609375 172.46875 300.671875 172.191406 302.972656 C 171.511719 308.949219 171.976562 314.835938 173.582031 320.667969 C 173.800781 321.46875 173.65625 321.542969 173.132812 320.882812 C 166.605469 312.445312 162.378906 304.015625 157.425781 294.882812 C 157.269531 294.5625 157.152344 294.21875 157.117188 293.847656 C 157.085938 293.453125 157.140625 293.046875 157.289062 292.683594 C 161.550781 281.324219 163.898438 268.796875 165.386719 256.789062 C 165.515625 255.917969 165.429688 253.800781 165.199219 250.464844 C 165.179688 250.242188 165.054688 250.054688 164.867188 249.917969 C 164.03125 249.433594 162.902344 249.128906 162.25 248.453125 C 158.921875 245.050781 159.019531 241.648438 162.496094 238.246094 C 162.703125 238.074219 162.773438 237.824219 162.75 237.539062 L 161.777344 228.136719 C 161.761719 227.894531 161.636719 227.796875 161.378906 227.878906 Z M 161.375 227.867188 " fill-opacity="1" fill-rule="evenodd"/></g></g></g><g fill="#bfbfbf" fill-opacity="1"><g transform="translate(226.599921, 192.1206)"><g><path d="M 3.953125 -9.734375 C 5.066406 -9.734375 5.898438 -9.5 6.453125 -9.03125 C 7.003906 -8.570312 7.28125 -7.941406 7.28125 -7.140625 C 7.28125 -6.554688 7.140625 -6.070312 6.859375 -5.6875 C 6.578125 -5.300781 6.179688 -5.007812 5.671875 -4.8125 C 5.171875 -4.625 4.582031 -4.53125 3.90625 -4.53125 L 7.40625 0 L 6.203125 0 L 2.765625 -4.53125 L 2.15625 -4.53125 L 2.15625 0 L 1.171875 0 L 1.171875 -9.734375 Z M 3.90625 -5.46875 C 4.65625 -5.46875 5.234375 -5.601562 5.640625 -5.875 C 6.054688 -6.144531 6.265625 -6.566406 6.265625 -7.140625 C 6.265625 -7.640625 6.085938 -8.035156 5.734375 -8.328125 C 5.378906 -8.628906 4.847656 -8.78125 4.140625 -8.78125 L 2.15625 -8.78125 L 2.15625 -5.46875 Z M 3.90625 -5.46875 "/></g></g></g></svg>